<svg version="1.0" xmlns="http://www.w3.org/2000/svg" width="512" height="512" viewBox="0 0 512 512">
  <g transform="translate(0,512) scale(0.1,-0.1)" fill="#000000" stroke="none">
    <path d="M0 2560 l0 -2560 2560 0 2560 0 0 2560 0 2560 -2560 0 -2560 0 0 -2560z m2200 800 c100 -20 180 -60 250 -125 70 -65 110 -145 130 -245 15 -75 15 -225 0 -300 -20 -100 -60 -180 -125 -250 -65 -70 -145 -110 -245 -130 -75 -15 -225 -15 -300 0 -100 20 -180 60 -250 125 -70 65 -110 145 -130 245 -15 75 -15 225 0 300 20 100 60 180 125 250 65 70 145 110 245 130 75 15 225 15 300 0z"/>
    <path d="M1950 2800 l0 -400 200 0 200 0 0 400 0 400 -200 0 -200 0 0 -400z"/>
    <path d="M2450 2800 l0 -400 200 0 200 0 0 400 0 400 -200 0 -200 0 0 -400z"/>
    <path d="M2950 2800 l0 -400 200 0 200 0 0 400 0 400 -200 0 -200 0 0 -400z"/>
  </g>
</svg>